<svg version="1.1" xmlns="http://www.w3.org/2000/svg" viewBox="0 0 50 50" xml:space="preserve">
  <g transform="translate(-1.486 -.843)" color="#c046ff">
    <path fill="currentColor" d="M48.5 36.3 46.2 35c-5.1 10.6-17.8 15.1-28.4 10.1S2.6 27.3 7.7 16.7 25.4 1.6 36.1 6.6c4.4 2.1 8 5.7 10.1 10.1l2.3-1.3.5-.4C43 2.9 28.3-2.2 16.1 3.8S-1.1 24.4 4.8 36.6s20.7 17.3 32.9 11.3c4.9-2.4 8.9-6.4 11.3-11.3l-.5-.3z"/>
    <path fill="currentColor" d="m39 25.8 11.6 6.7V19.1L39 25.8z"/>
    <path fill="currentColor" d="M40 31.5c-3.1 7.2-11.5 10.6-18.7 7.5-7.2-3.1-10.6-11.5-7.5-18.7s11.5-10.6 18.7-7.5c3.4 1.4 6 4.1 7.5 7.5l2.8-1.6C38.8 9.9 28.4 6 19.6 10S7 24.3 11 33.1s14.4 12.7 23.2 8.7c3.9-1.8 6.9-4.8 8.7-8.7L40 31.5z"/>
  </g>
</svg>
